<svg id="visual" viewBox="0 0 1512 300" width="1512" height="300" xmlns="http://www.w3.org/2000/svg" xmlns:xlink="http://www.w3.org/1999/xlink" version="1.1"><rect width="1512" height="300" fill="#1A1A1A"></rect><g><g transform="translate(828 218)"><path d="M0 -65.5L65.5 0L0 65.5L-65.5 0Z" fill="none" stroke="#F7760E" stroke-width="9"></path></g><g transform="translate(266 227)"><path d="M0 -18L18 0L0 18L-18 0Z" stroke="#F7760E" fill="none" stroke-width="9"></path></g><g transform="translate(374 100)"><path d="M0 -63L63 0L0 63L-63 0Z" stroke="#F7760E" fill="none" stroke-width="9"></path></g><g transform="translate(1269 94)"><path d="M0 -25L25 0L0 25L-25 0Z" stroke="#F7760E" fill="none" stroke-width="9"></path></g><g transform="translate(664 185)"><path d="M0 -23L23 0L0 23L-23 0Z" stroke="#F7760E" fill="none" stroke-width="9"></path></g><g transform="translate(1144 184)"><path d="M0 -44L44 0L0 44L-44 0Z" stroke="#F7760E" fill="none" stroke-width="9"></path></g><g transform="translate(128 147)"><path d="M0 -56L56 0L0 56L-56 0Z" stroke="#F7760E" fill="none" stroke-width="9"></path></g><g transform="translate(1442 229)"><path d="M0 -31L31 0L0 31L-31 0Z" stroke="#F7760E" fill="none" stroke-width="9"></path></g><g transform="translate(1025 101)"><path d="M0 -19L19 0L0 19L-19 0Z" stroke="#F7760E" fill="none" stroke-width="9"></path></g><g transform="translate(506 110)"><path d="M0 -34L34 0L0 34L-34 0Z" stroke="#F7760E" fill="none" stroke-width="9"></path></g><g transform="translate(742 71)"><path d="M0 -46L46 0L0 46L-46 0Z" stroke="#F7760E" fill="none" stroke-width="9"></path></g><g transform="translate(984 230)"><path d="M0 -30L30 0L0 30L-30 0Z" stroke="#F7760E" fill="none" stroke-width="9"></path></g><g transform="translate(1408 73)"><path d="M0 -44L44 0L0 44L-44 0Z" stroke="#F7760E" fill="none" stroke-width="9"></path></g><g transform="translate(1307 224)"><path d="M0 -55L55 0L0 55L-55 0Z" stroke="#F7760E" fill="none" stroke-width="9"></path></g><g transform="translate(894 101)"><path d="M0 -23L23 0L0 23L-23 0Z" stroke="#F7760E" fill="none" stroke-width="9"></path></g><g transform="translate(237 74)"><path d="M0 -32L32 0L0 32L-32 0Z" stroke="#F7760E" fill="none" stroke-width="9"></path></g><g transform="translate(455 231)"><path d="M0 -31L31 0L0 31L-31 0Z" stroke="#F7760E" fill="none" stroke-width="9"></path></g></g></svg>