<svg id="visual" viewBox="0 0 500 500" width="500" height="500" xmlns="http://www.w3.org/2000/svg" xmlns:xlink="http://www.w3.org/1999/xlink" version="1.1"><g transform="translate(266.8402355767408 262.97648182153057)"><path d="M127.6 -166.7C153.3 -130.6 153.6 -78.9 161.3 -29.3C169 20.2 184.1 67.6 171.4 107.9C158.8 148.1 118.4 181.2 74.6 191C30.9 200.8 -16.2 187.3 -65.3 172.4C-114.4 157.6 -165.4 141.3 -190.3 106.1C-215.2 70.8 -214 16.7 -200.4 -31C-186.8 -78.6 -160.9 -119.7 -125.4 -154.2C-90 -188.6 -45 -216.3 3 -219.9C51 -223.4 102 -202.9 127.6 -166.7" fill="#212020"></path></g></svg>