<svg className="blob-motion" id="visual" viewBox="0 0 1000 800" width="1000" height="800" xmlns="http://www.w3.org/2000/svg" xmlns:xlink="http://www.w3.org/1999/xlink" version="1.1"><g transform="translate(515.2660999381692 354.31824078722696)"><path d="M153.1 -184.3C199.1 -143.9 237.4 -96.3 263.7 -33.7C290.1 28.9 304.4 106.5 279 171.1C253.6 235.7 188.5 287.5 112.7 319.3C36.8 351.1 -49.8 363 -128.1 339.8C-206.4 316.6 -276.4 258.3 -305.7 186.6C-335 115 -323.6 30 -294.8 -37.8C-266 -105.6 -219.8 -156.2 -167.7 -195.6C-115.7 -234.9 -57.9 -262.9 -2.1 -260.4C53.6 -257.8 107.1 -224.7 153.1 -184.3" fill="#212020"></path></g></svg>