<svg id="visual" viewBox="0 0 500 500" width="500" height="500" xmlns="http://www.w3.org/2000/svg" xmlns:xlink="http://www.w3.org/1999/xlink" version="1.1"><rect x="0" y="0" width="500" height="500" fill="#121212"></rect><g transform="translate(245.14127353314478 261.6633657945255)"><path d="M146.5 -166.5C185.9 -141.6 211.1 -91.6 216.5 -41.1C221.9 9.4 207.5 60.4 177.4 92.9C147.3 125.4 101.5 139.3 58.8 149.8C16 160.4 -23.8 167.6 -66.7 161.5C-109.7 155.4 -155.7 135.9 -182.2 100.3C-208.7 64.6 -215.6 12.7 -198.7 -26.7C-181.9 -66.1 -141.2 -92.9 -104.1 -118.2C-67 -143.5 -33.5 -167.2 10 -179.2C53.6 -191.2 107.1 -191.3 146.5 -166.5" fill="#212020"></path></g></svg>