<svg id="visual" viewBox="0 0 640 600" width="640" height="600" xmlns="http://www.w3.org/2000/svg" xmlns:xlink="http://www.w3.org/1999/xlink" version="1.1"><g transform="translate(294.2016216777573 330.4574790555331)"><path d="M173.5 -207.7C222 -166.2 256.2 -108.7 253.7 -54.8C251.1 -1 211.7 49.3 174 87.2C136.3 125.1 100.2 150.6 56.9 174C13.7 197.3 -36.8 218.5 -81.7 208.9C-126.6 199.2 -165.9 158.9 -185.3 112.9C-204.8 67 -204.3 15.5 -199.3 -38.9C-194.2 -93.4 -184.5 -150.9 -150.5 -194.9C-116.6 -238.9 -58.3 -269.5 2.1 -272C62.6 -274.6 125.1 -249.1 173.5 -207.7" fill="#212020"></path></g></svg>