<svg id="visual" viewBox="0 0 1000 800" width="1000" height="800" xmlns="http://www.w3.org/2000/svg" xmlns:xlink="http://www.w3.org/1999/xlink" version="1.1"><rect x="0" y="0" width="1000" height="800" fill="#121212"></rect><g transform="translate(494.63474605388643 395.304311450976)"><path d="M221.5 -262.3C279.8 -215.1 314.7 -138.4 326.1 -59.6C337.6 19.2 325.5 100.1 290.1 173C254.6 246 195.7 310.9 127.8 323.7C60 336.4 -16.9 296.9 -96 266.8C-175.1 236.7 -256.4 215.8 -293.8 163.6C-331.2 111.3 -324.6 27.6 -295.1 -36.8C-265.6 -101.2 -213.2 -146.4 -160.2 -194.5C-107.1 -242.7 -53.6 -293.8 14 -310.6C81.6 -327.3 163.3 -309.6 221.5 -262.3" fill="#212020"></path></g></svg>