<svg id="visual" viewBox="0 0 640 600" width="640" height="600" xmlns="http://www.w3.org/2000/svg" xmlns:xlink="http://www.w3.org/1999/xlink" version="1.1"><rect x="0" y="0" width="640" height="600" fill="#121212"></rect><g transform="translate(301.86845747028667 305.9124353166503)"><path d="M132.6 -170.8C165.7 -130.2 182.3 -82.6 200.8 -28C219.2 26.6 239.5 88.3 221.9 136.9C204.3 185.5 148.9 221 94.1 227.3C39.4 233.7 -14.5 210.8 -59.6 185.1C-104.8 159.5 -141.2 131 -164.6 93.5C-187.9 56.1 -198.4 9.6 -188.9 -31.4C-179.4 -72.4 -149.9 -108 -115.1 -148.4C-80.4 -188.8 -40.2 -233.9 4.8 -239.6C49.7 -245.2 99.4 -211.5 132.6 -170.8" fill="#212020"></path></g></svg>