<svg id="visual" viewBox="0 0 1000 800" width="1000" height="800" xmlns="http://www.w3.org/2000/svg" xmlns:xlink="http://www.w3.org/1999/xlink" version="1.1"><rect x="0" y="0" width="1000" height="800" fill="#121212"></rect><g transform="translate(474.7610798556357 404.8522733617958)"><path d="M215.6 -252.3C281.3 -201.9 337.6 -135.7 344.7 -65.2C351.8 5.2 309.7 79.8 265.1 149.4C220.6 218.9 173.6 283.3 108.9 312.7C44.2 342 -38.1 336.4 -115.9 311.2C-193.7 286 -267 241.3 -288 178.9C-309 116.5 -277.6 36.6 -262 -45.2C-246.4 -127 -246.6 -210.6 -205.6 -265.3C-164.6 -320.1 -82.3 -346.1 -3.6 -341.7C75 -337.4 150 -302.7 215.6 -252.3" fill="#212020"></path></g></svg>