<svg id="visual" viewBox="0 0 1512 300" width="1512" height="300" xmlns="http://www.w3.org/2000/svg" xmlns:xlink="http://www.w3.org/1999/xlink" version="1.1"><rect width="1512" height="300" fill="#121212"></rect><g><g transform="translate(1215 172)"><path d="M51.1 -40.3C63.2 -25.6 67.9 -4.5 63.5 14.4C59.1 33.3 45.7 50.1 28.2 58.4C10.8 66.7 -10.6 66.6 -28.5 58.3C-46.4 50 -60.9 33.6 -64.7 15.2C-68.6 -3.1 -61.7 -23.4 -49.2 -38.2C-36.6 -53 -18.3 -62.2 0.6 -62.6C19.5 -63.1 39 -54.9 51.1 -40.3Z" fill="none" stroke="#F7760E" stroke-width="14"></path></g><g transform="translate(266 214)"><path d="M32.4 -25.7C40.4 -15.9 44.1 -2.5 41.4 9.4C38.6 21.4 29.5 31.8 18.2 37C6.9 42.1 -6.6 41.9 -17.6 36.6C-28.6 31.2 -37.1 20.8 -39.8 9.1C-42.5 -2.7 -39.4 -15.9 -31.8 -25.6C-24.2 -35.3 -12.1 -41.7 0.1 -41.7C12.2 -41.8 24.5 -35.5 32.4 -25.7Z" fill="none" stroke="#F7760E" stroke-width="14"></path></g><g transform="translate(516 80)"><path d="M23.2 -18.3C28.7 -11.6 30.9 -2 28.8 6.5C26.8 15 20.6 22.5 12.8 26.2C4.9 29.8 -4.6 29.5 -12.6 25.8C-20.6 22.1 -27.2 14.9 -29.3 6.4C-31.5 -2 -29.2 -11.8 -23.6 -18.5C-18 -25.2 -9 -28.9 -0.1 -28.9C8.9 -28.8 17.7 -25 23.2 -18.3Z" stroke="#F7760E" fill="none" stroke-width="14"></path></g><g transform="translate(737 174)"><path d="M36.1 -28.8C44.4 -18.4 47.1 -3.5 43.9 9.9C40.8 23.4 31.8 35.4 19.6 41.6C7.4 47.9 -8.1 48.4 -20.8 42.5C-33.5 36.7 -43.5 24.4 -46.7 10.6C-49.9 -3.3 -46.5 -18.8 -37.6 -29.4C-28.7 -40 -14.3 -45.6 -0.2 -45.5C13.9 -45.3 27.8 -39.3 36.1 -28.8Z" stroke="#F7760E" fill="none" stroke-width="14"></path></g><g transform="translate(110 115)"><path d="M18 -14.2C22.6 -8.7 24.9 -1.3 23.3 5.3C21.8 11.8 16.4 17.4 10 20.3C3.6 23.3 -4 23.5 -10.2 20.7C-16.5 17.9 -21.6 12 -23.2 5.2C-24.8 -1.5 -22.9 -9.2 -18.5 -14.6C-14 -20.1 -7 -23.4 -0.1 -23.3C6.8 -23.2 13.5 -19.7 18 -14.2Z" stroke="#F7760E" fill="none" stroke-width="14"></path></g><g transform="translate(1039 183)"><path d="M20.2 -15.9C25.2 -9.8 27.7 -1.4 26.1 6C24.4 13.5 18.6 20.1 11.6 23.1C4.6 26.1 -3.7 25.6 -10.4 22.1C-17 18.7 -22 12.4 -23.8 5.2C-25.6 -2 -24.3 -10.1 -19.8 -16.1C-15.3 -22.1 -7.6 -26 0 -26C7.6 -25.9 15.1 -22 20.2 -15.9Z" stroke="#F7760E" fill="none" stroke-width="14"></path></g><g transform="translate(1396 81)"><path d="M35.3 -27.8C43.7 -17.7 47 -3.1 44.3 10.7C41.6 24.5 32.9 37.4 20.9 43.1C8.9 48.8 -6.5 47.2 -18.7 40.6C-30.9 34.1 -39.8 22.6 -42.9 9.6C-46 -3.4 -43.4 -18 -35.3 -28C-27.2 -38.1 -13.6 -43.7 -0.1 -43.6C13.5 -43.6 26.9 -37.9 35.3 -27.8Z" stroke="#F7760E" fill="none" stroke-width="14"></path></g><g transform="translate(895 79)"><path d="M29.6 -23.4C37 -14.4 40.6 -2.1 38.2 8.8C35.7 19.7 27.2 29.3 16.7 34.3C6.1 39.2 -6.5 39.5 -16.8 34.6C-27 29.8 -34.9 19.8 -37.9 8.2C-40.9 -3.4 -39 -16.5 -31.9 -25.4C-24.8 -34.3 -12.4 -39 -0.6 -38.5C11.1 -38 22.3 -32.3 29.6 -23.4Z" stroke="#F7760E" fill="none" stroke-width="14"></path></g></g></svg>