<svg id="visual" viewBox="0 0 1000 800" width="1000" height="800" xmlns="http://www.w3.org/2000/svg" xmlns:xlink="http://www.w3.org/1999/xlink" version="1.1"><rect x="0" y="0" width="1000" height="800" fill="#121212"></rect><g transform="translate(499.9060553465455 403.6677237895907)"><path d="M169 -181.1C230.9 -149.5 301.1 -107.5 331.9 -42.3C362.7 22.9 354.1 111.2 308.5 166.9C263 222.6 180.4 245.7 106.4 257.5C32.4 269.4 -33.1 270 -94.3 251.1C-155.4 232.3 -212.4 193.9 -261.6 137.2C-310.9 80.5 -352.4 5.5 -349.8 -70.8C-347.2 -147.2 -300.6 -224.9 -234.9 -255.8C-169.3 -286.7 -84.6 -270.9 -15.5 -252.4C53.6 -233.8 107.1 -212.7 169 -181.1" fill="#212020"></path></g></svg>