<svg id="visual" viewBox="0 0 1512 300" width="1512" height="300" xmlns="http://www.w3.org/2000/svg" xmlns:xlink="http://www.w3.org/1999/xlink" version="1.1"><rect x="0" y="0" width="1512" height="300" fill="#121212"></rect><path d="M0 71L36 76.2C72 81.3 144 91.7 216 99.8C288 108 360 114 432 113.2C504 112.3 576 104.7 648 97.3C720 90 792 83 864 85C936 87 1008 98 1080 102C1152 106 1224 103 1296 95.2C1368 87.3 1440 74.7 1476 68.3L1512 62L1512 301L1476 301C1440 301 1368 301 1296 301C1224 301 1152 301 1080 301C1008 301 936 301 864 301C792 301 720 301 648 301C576 301 504 301 432 301C360 301 288 301 216 301C144 301 72 301 36 301L0 301Z" fill="#666666"></path><path d="M0 106L36 109.3C72 112.7 144 119.3 216 123.5C288 127.7 360 129.3 432 133.3C504 137.3 576 143.7 648 140.5C720 137.3 792 124.7 864 123.5C936 122.3 1008 132.7 1080 131.5C1152 130.3 1224 117.7 1296 112.3C1368 107 1440 109 1476 110L1512 111L1512 301L1476 301C1440 301 1368 301 1296 301C1224 301 1152 301 1080 301C1008 301 936 301 864 301C792 301 720 301 648 301C576 301 504 301 432 301C360 301 288 301 216 301C144 301 72 301 36 301L0 301Z" fill="#7e7e7e"></path><path d="M0 159L36 159C72 159 144 159 216 156.5C288 154 360 149 432 153.5C504 158 576 172 648 174.5C720 177 792 168 864 161.7C936 155.3 1008 151.7 1080 149.7C1152 147.7 1224 147.3 1296 154C1368 160.7 1440 174.3 1476 181.2L1512 188L1512 301L1476 301C1440 301 1368 301 1296 301C1224 301 1152 301 1080 301C1008 301 936 301 864 301C792 301 720 301 648 301C576 301 504 301 432 301C360 301 288 301 216 301C144 301 72 301 36 301L0 301Z" fill="#979797"></path><path d="M0 236L36 234.8C72 233.7 144 231.3 216 224.5C288 217.7 360 206.3 432 200.5C504 194.7 576 194.3 648 199.3C720 204.3 792 214.7 864 214C936 213.3 1008 201.7 1080 200.8C1152 200 1224 210 1296 217.2C1368 224.3 1440 228.7 1476 230.8L1512 233L1512 301L1476 301C1440 301 1368 301 1296 301C1224 301 1152 301 1080 301C1008 301 936 301 864 301C792 301 720 301 648 301C576 301 504 301 432 301C360 301 288 301 216 301C144 301 72 301 36 301L0 301Z" fill="#b1b1b1"></path><path d="M0 233L36 237.7C72 242.3 144 251.7 216 253.8C288 256 360 251 432 251.5C504 252 576 258 648 260.7C720 263.3 792 262.7 864 258.2C936 253.7 1008 245.3 1080 241.2C1152 237 1224 237 1296 237.5C1368 238 1440 239 1476 239.5L1512 240L1512 301L1476 301C1440 301 1368 301 1296 301C1224 301 1152 301 1080 301C1008 301 936 301 864 301C792 301 720 301 648 301C576 301 504 301 432 301C360 301 288 301 216 301C144 301 72 301 36 301L0 301Z" fill="#cccccc"></path></svg>