<svg id="visual" viewBox="0 0 1512 300" width="1512" height="300" xmlns="http://www.w3.org/2000/svg" xmlns:xlink="http://www.w3.org/1999/xlink" version="1.1"><rect x="0" y="0" width="1512" height="300" fill="#CCCCCC"></rect><path d="M0 114L216 52L432 71L648 103L864 87L1080 121L1296 111L1512 69L1512 301L1296 301L1080 301L864 301L648 301L432 301L216 301L0 301Z" fill="#87cefa"></path><path d="M0 170L216 109L432 146L648 143L864 179L1080 162L1296 176L1512 125L1512 301L1296 301L1080 301L864 301L648 301L432 301L216 301L0 301Z" fill="#6999b9"></path><path d="M0 195L216 167L432 139L648 198L864 159L1080 158L1296 156L1512 193L1512 301L1296 301L1080 301L864 301L648 301L432 301L216 301L0 301Z" fill="#4b687c"></path><path d="M0 185L216 185L432 206L648 225L864 224L1080 216L1296 191L1512 233L1512 301L1296 301L1080 301L864 301L648 301L432 301L216 301L0 301Z" fill="#2e3b44"></path><path d="M0 259L216 264L432 240L648 232L864 226L1080 257L1296 238L1512 238L1512 301L1296 301L1080 301L864 301L648 301L432 301L216 301L0 301Z" fill="#121212"></path></svg>