<svg id="visual" viewBox="0 0 1512 300" width="1512" height="300" xmlns="http://www.w3.org/2000/svg" xmlns:xlink="http://www.w3.org/1999/xlink" version="1.1"><rect x="0" y="0" width="1512" height="300" fill="#121212"></rect><path d="M0 87L36 89.8C72 92.7 144 98.3 216 101.8C288 105.3 360 106.7 432 103.8C504 101 576 94 648 89.2C720 84.3 792 81.7 864 84.8C936 88 1008 97 1080 98.5C1152 100 1224 94 1296 95.2C1368 96.3 1440 104.7 1476 108.8L1512 113L1512 301L1476 301C1440 301 1368 301 1296 301C1224 301 1152 301 1080 301C1008 301 936 301 864 301C792 301 720 301 648 301C576 301 504 301 432 301C360 301 288 301 216 301C144 301 72 301 36 301L0 301Z" fill="#f7760e"></path><path d="M0 162L36 157.2C72 152.3 144 142.7 216 142.3C288 142 360 151 432 148.2C504 145.3 576 130.7 648 128.7C720 126.7 792 137.3 864 139C936 140.7 1008 133.3 1080 133C1152 132.7 1224 139.3 1296 142.3C1368 145.3 1440 144.7 1476 144.3L1512 144L1512 301L1476 301C1440 301 1368 301 1296 301C1224 301 1152 301 1080 301C1008 301 936 301 864 301C792 301 720 301 648 301C576 301 504 301 432 301C360 301 288 301 216 301C144 301 72 301 36 301L0 301Z" fill="#bc5e1b"></path><path d="M0 168L36 173C72 178 144 188 216 184.2C288 180.3 360 162.7 432 156.2C504 149.7 576 154.3 648 154.8C720 155.3 792 151.7 864 156.2C936 160.7 1008 173.3 1080 182.2C1152 191 1224 196 1296 196.2C1368 196.3 1440 191.7 1476 189.3L1512 187L1512 301L1476 301C1440 301 1368 301 1296 301C1224 301 1152 301 1080 301C1008 301 936 301 864 301C792 301 720 301 648 301C576 301 504 301 432 301C360 301 288 301 216 301C144 301 72 301 36 301L0 301Z" fill="#83461e"></path><path d="M0 211L36 212.8C72 214.7 144 218.3 216 219C288 219.7 360 217.3 432 213.2C504 209 576 203 648 198.8C720 194.7 792 192.3 864 191.7C936 191 1008 192 1080 194.3C1152 196.7 1224 200.3 1296 207.3C1368 214.3 1440 224.7 1476 229.8L1512 235L1512 301L1476 301C1440 301 1368 301 1296 301C1224 301 1152 301 1080 301C1008 301 936 301 864 301C792 301 720 301 648 301C576 301 504 301 432 301C360 301 288 301 216 301C144 301 72 301 36 301L0 301Z" fill="#4d301d"></path><path d="M0 233L36 238.3C72 243.7 144 254.3 216 255C288 255.7 360 246.3 432 244C504 241.7 576 246.3 648 250.2C720 254 792 257 864 259C936 261 1008 262 1080 262.7C1152 263.3 1224 263.7 1296 262.8C1368 262 1440 260 1476 259L1512 258L1512 301L1476 301C1440 301 1368 301 1296 301C1224 301 1152 301 1080 301C1008 301 936 301 864 301C792 301 720 301 648 301C576 301 504 301 432 301C360 301 288 301 216 301C144 301 72 301 36 301L0 301Z" fill="#1a1a1a"></path></svg>