<svg id="visual" viewBox="0 0 1512 300" width="1512" height="300" xmlns="http://www.w3.org/2000/svg" xmlns:xlink="http://www.w3.org/1999/xlink" version="1.1"><rect width="1512" height="300" fill="#121212"></rect><g><g transform="translate(1172 56)"><path d="M91.6 -32.5C102.2 3 83 45.5 50.1 69.5C17.2 93.6 -29.5 99.2 -58 78.7C-86.5 58.3 -96.8 11.7 -84.1 -26.6C-71.4 -65 -35.7 -95.1 2.4 -95.9C40.5 -96.7 80.9 -68.1 91.6 -32.5Z" fill="none" stroke="#F7760E" stroke-width="20"></path></g><g transform="translate(302 193)"><path d="M51.7 -18.4C59.5 7.3 53.3 36 33.8 51.3C14.3 66.6 -18.4 68.5 -39.3 53.5C-60.1 38.5 -68.9 6.6 -60.4 -20.1C-51.9 -46.8 -25.9 -68.3 -2 -67.7C21.9 -67 43.8 -44.2 51.7 -18.4Z" fill="none" stroke="#F7760E" stroke-width="20"></path></g><g transform="translate(819 254)"><path d="M76.4 -22.6C86.1 5.1 72.3 42.8 47.2 59.8C22.1 76.7 -14.1 73.1 -38 55.1C-62 37 -73.5 4.7 -65.1 -21.2C-56.7 -47.2 -28.4 -66.7 2.5 -67.5C33.3 -68.3 66.7 -50.4 76.4 -22.6Z" fill="none" stroke="#F7760E" stroke-width="20"></path></g><g transform="translate(1405 264)"><path d="M49.8 -15.6C56.8 5.3 49.3 31.4 32.6 43.2C15.8 55 -10.2 52.5 -26.8 39.7C-43.5 27 -50.7 4.1 -44.6 -15.5C-38.6 -35.1 -19.3 -51.3 1.1 -51.7C21.4 -52 42.9 -36.4 49.8 -15.6Z" fill="none" stroke="#F7760E" stroke-width="20"></path></g><g transform="translate(551 67)"><path d="M40.6 -13.4C46.7 5.6 41.7 28.1 27.4 38.7C13 49.4 -10.6 48.3 -26.6 36.6C-42.7 25 -51.1 2.8 -45.4 -15.6C-39.7 -34.1 -19.9 -48.8 -1.3 -48.4C17.2 -47.9 34.4 -32.4 40.6 -13.4Z" fill="none" stroke="#F7760E" stroke-width="20"></path></g><g transform="translate(12 145)"><path d="M91.1 -32.9C100.9 0.8 80.1 41.2 48.4 63.5C16.7 85.8 -25.8 89.9 -55.7 69.9C-85.6 49.8 -102.7 5.4 -91.3 -30.4C-79.9 -66.2 -40 -93.5 0.3 -93.6C40.6 -93.7 81.2 -66.6 91.1 -32.9Z" fill="none" stroke="#F7760E" stroke-width="20"></path></g><g transform="translate(1481 3)"><path d="M78.8 -23.8C88.8 5.2 74.4 43.9 47.8 62.4C21.3 80.9 -17.5 79.1 -44.9 59.7C-72.3 40.2 -88.5 3.1 -79.1 -25C-69.7 -53 -34.9 -72.1 -0.2 -72C34.4 -72 68.8 -52.7 78.8 -23.8Z" stroke="#F7760E" fill="none" stroke-width="20"></path></g></g></svg>