<svg id="visual" viewBox="0 0 1512 300" width="1512" height="300" xmlns="http://www.w3.org/2000/svg" xmlns:xlink="http://www.w3.org/1999/xlink" version="1.1"><rect x="0" y="0" width="1512" height="300" fill="#333333"></rect><path d="M0 61L216 82L432 60L648 136L864 102L1080 52L1296 100L1512 106L1512 301L1296 301L1080 301L864 301L648 301L432 301L216 301L0 301Z" fill="#87cefa"></path><path d="M0 136L216 164L432 106L648 156L864 140L1080 98L1296 152L1512 124L1512 301L1296 301L1080 301L864 301L648 301L432 301L216 301L0 301Z" fill="#6999b9"></path><path d="M0 173L216 197L432 197L648 205L864 173L1080 184L1296 176L1512 179L1512 301L1296 301L1080 301L864 301L648 301L432 301L216 301L0 301Z" fill="#4b687c"></path><path d="M0 232L216 200L432 208L648 198L864 242L1080 242L1296 220L1512 242L1512 301L1296 301L1080 301L864 301L648 301L432 301L216 301L0 301Z" fill="#2e3b44"></path><path d="M0 241L216 268L432 228L648 264L864 248L1080 225L1296 265L1512 254L1512 301L1296 301L1080 301L864 301L648 301L432 301L216 301L0 301Z" fill="#121212"></path></svg>