<svg id="visual" viewBox="0 0 1512 350" width="1512" height="350" xmlns="http://www.w3.org/2000/svg" xmlns:xlink="http://www.w3.org/1999/xlink" version="1.1"><rect x="0" y="0" width="1512" height="350" fill="#140021"></rect><path d="M0 213L216 213L216 200L432 200L432 205L648 205L648 219L864 219L864 202L1080 202L1080 210L1296 210L1296 201L1512 201L1512 193L1512 0L1512 0L1296 0L1296 0L1080 0L1080 0L864 0L864 0L648 0L648 0L432 0L432 0L216 0L216 0L0 0Z" fill="#560090"></path><path d="M0 184L216 184L216 172L432 172L432 183L648 183L648 169L864 169L864 158L1080 158L1080 162L1296 162L1296 182L1512 182L1512 190L1512 0L1512 0L1296 0L1296 0L1080 0L1080 0L864 0L864 0L648 0L648 0L432 0L432 0L216 0L216 0L0 0Z" fill="#9b0082"></path><path d="M0 151L216 151L216 150L432 150L432 156L648 156L648 132L864 132L864 143L1080 143L1080 155L1296 155L1296 136L1512 136L1512 145L1512 0L1512 0L1296 0L1296 0L1080 0L1080 0L864 0L864 0L648 0L648 0L432 0L432 0L216 0L216 0L0 0Z" fill="#c71d73"></path><path d="M0 93L216 93L216 117L432 117L432 109L648 109L648 121L864 121L864 102L1080 102L1080 104L1296 104L1296 115L1512 115L1512 118L1512 0L1512 0L1296 0L1296 0L1080 0L1080 0L864 0L864 0L648 0L648 0L432 0L432 0L216 0L216 0L0 0Z" fill="#e44f68"></path><path d="M0 54L216 54L216 63L432 63L432 67L648 67L648 83L864 83L864 54L1080 54L1080 55L1296 55L1296 80L1512 80L1512 73L1512 0L1512 0L1296 0L1296 0L1080 0L1080 0L864 0L864 0L648 0L648 0L432 0L432 0L216 0L216 0L0 0Z" fill="#f67c65"></path><path d="M0 25L216 25L216 50L432 50L432 21L648 21L648 42L864 42L864 26L1080 26L1080 31L1296 31L1296 18L1512 18L1512 45L1512 0L1512 0L1296 0L1296 0L1080 0L1080 0L864 0L864 0L648 0L648 0L432 0L432 0L216 0L216 0L0 0Z" fill="#ffa86e"></path></svg>