<svg id="visual" viewBox="0 0 1512 350" width="1512" height="350" xmlns="http://www.w3.org/2000/svg" xmlns:xlink="http://www.w3.org/1999/xlink" version="1.1"><rect x="0" y="0" width="1512" height="350" fill="#001220"></rect><path d="M0 82L36 85.2C72 88.3 144 94.7 216 107.7C288 120.7 360 140.3 432 149.2C504 158 576 156 648 144.3C720 132.7 792 111.3 864 107.7C936 104 1008 118 1080 121.3C1152 124.7 1224 117.3 1296 115.8C1368 114.3 1440 118.7 1476 120.8L1512 123L1512 351L1476 351C1440 351 1368 351 1296 351C1224 351 1152 351 1080 351C1008 351 936 351 864 351C792 351 720 351 648 351C576 351 504 351 432 351C360 351 288 351 216 351C144 351 72 351 36 351L0 351Z" fill="#fa7268"></path><path d="M0 193L36 190.7C72 188.3 144 183.7 216 173.2C288 162.7 360 146.3 432 145C504 143.7 576 157.3 648 165.3C720 173.3 792 175.7 864 175.8C936 176 1008 174 1080 163.7C1152 153.3 1224 134.7 1296 136C1368 137.3 1440 158.7 1476 169.3L1512 180L1512 351L1476 351C1440 351 1368 351 1296 351C1224 351 1152 351 1080 351C1008 351 936 351 864 351C792 351 720 351 648 351C576 351 504 351 432 351C360 351 288 351 216 351C144 351 72 351 36 351L0 351Z" fill="#fa9d71"></path><path d="M0 172L36 170.2C72 168.3 144 164.7 216 172.7C288 180.7 360 200.3 432 210.8C504 221.3 576 222.7 648 226.7C720 230.7 792 237.3 864 230.5C936 223.7 1008 203.3 1080 194C1152 184.7 1224 186.3 1296 187.2C1368 188 1440 188 1476 188L1512 188L1512 351L1476 351C1440 351 1368 351 1296 351C1224 351 1152 351 1080 351C1008 351 936 351 864 351C792 351 720 351 648 351C576 351 504 351 432 351C360 351 288 351 216 351C144 351 72 351 36 351L0 351Z" fill="#f7c28c"></path><path d="M0 254L36 247.2C72 240.3 144 226.7 216 223.7C288 220.7 360 228.3 432 234.5C504 240.7 576 245.3 648 253C720 260.7 792 271.3 864 276.5C936 281.7 1008 281.3 1080 276.2C1152 271 1224 261 1296 250.7C1368 240.3 1440 229.7 1476 224.3L1512 219L1512 351L1476 351C1440 351 1368 351 1296 351C1224 351 1152 351 1080 351C1008 351 936 351 864 351C792 351 720 351 648 351C576 351 504 351 432 351C360 351 288 351 216 351C144 351 72 351 36 351L0 351Z" fill="#f7e3b6"></path><path d="M0 315L36 312.2C72 309.3 144 303.7 216 297.8C288 292 360 286 432 289C504 292 576 304 648 304.5C720 305 792 294 864 288.8C936 283.7 1008 284.3 1080 282.3C1152 280.3 1224 275.7 1296 271.8C1368 268 1440 265 1476 263.5L1512 262L1512 351L1476 351C1440 351 1368 351 1296 351C1224 351 1152 351 1080 351C1008 351 936 351 864 351C792 351 720 351 648 351C576 351 504 351 432 351C360 351 288 351 216 351C144 351 72 351 36 351L0 351Z" fill="#ffffe6"></path></svg>