<svg id="visual" viewBox="0 0 1512 350" width="1512" height="350" xmlns="http://www.w3.org/2000/svg" xmlns:xlink="http://www.w3.org/1999/xlink" version="1.1"><rect x="0" y="0" width="1512" height="350" fill="#FFA86E"></rect><path d="M0 81L302 81L302 65L605 65L605 73L907 73L907 86L1210 86L1210 92L1512 92L1512 88L1512 351L1512 351L1210 351L1210 351L907 351L907 351L605 351L605 351L302 351L302 351L0 351Z" fill="#ff7f2a"></path><path d="M0 113L302 113L302 131L605 131L605 119L907 119L907 130L1210 130L1210 133L1512 133L1512 125L1512 351L1512 351L1210 351L1210 351L907 351L907 351L605 351L605 351L302 351L302 351L0 351Z" fill="#df5144"></path><path d="M0 166L302 166L302 186L605 186L605 161L907 161L907 164L1210 164L1210 179L1512 179L1512 165L1512 351L1512 351L1210 351L1210 351L907 351L907 351L605 351L605 351L302 351L302 351L0 351Z" fill="#b0304f"></path><path d="M0 212L302 212L302 198L605 198L605 219L907 219L907 201L1210 201L1210 218L1512 218L1512 203L1512 351L1512 351L1210 351L1210 351L907 351L907 351L605 351L605 351L302 351L302 351L0 351Z" fill="#791e4d"></path><path d="M0 249L302 249L302 265L605 265L605 248L907 248L907 244L1210 244L1210 257L1512 257L1512 245L1512 351L1512 351L1210 351L1210 351L907 351L907 351L605 351L605 351L302 351L302 351L0 351Z" fill="#41143d"></path><path d="M0 309L302 309L302 299L605 299L605 312L907 312L907 288L1210 288L1210 319L1512 319L1512 304L1512 351L1512 351L1210 351L1210 351L907 351L907 351L605 351L605 351L302 351L302 351L0 351Z" fill="#140021"></path></svg>