<svg id="visual" viewBox="0 0 1512 350" width="1512" height="350" xmlns="http://www.w3.org/2000/svg" xmlns:xlink="http://www.w3.org/1999/xlink" version="1.1"><rect x="0" y="0" width="1512" height="350" fill="#140021"></rect><path d="M0 145L36 148.5C72 152 144 159 216 152.5C288 146 360 126 432 124.3C504 122.7 576 139.3 648 137.2C720 135 792 114 864 112.8C936 111.7 1008 130.3 1080 136.3C1152 142.3 1224 135.7 1296 126.5C1368 117.3 1440 105.7 1476 99.8L1512 94L1512 351L1476 351C1440 351 1368 351 1296 351C1224 351 1152 351 1080 351C1008 351 936 351 864 351C792 351 720 351 648 351C576 351 504 351 432 351C360 351 288 351 216 351C144 351 72 351 36 351L0 351Z" fill="#6fc2b0"></path><path d="M0 135L36 144.5C72 154 144 173 216 179.5C288 186 360 180 432 174C504 168 576 162 648 168.5C720 175 792 194 864 193.2C936 192.3 1008 171.7 1080 164.2C1152 156.7 1224 162.3 1296 168.8C1368 175.3 1440 182.7 1476 186.3L1512 190L1512 351L1476 351C1440 351 1368 351 1296 351C1224 351 1152 351 1080 351C1008 351 936 351 864 351C792 351 720 351 648 351C576 351 504 351 432 351C360 351 288 351 216 351C144 351 72 351 36 351L0 351Z" fill="#6bd6bb"></path><path d="M0 188L36 203.3C72 218.7 144 249.3 216 265.3C288 281.3 360 282.7 432 271.5C504 260.3 576 236.7 648 234.5C720 232.3 792 251.7 864 262.7C936 273.7 1008 276.3 1080 269.3C1152 262.3 1224 245.7 1296 230.3C1368 215 1440 201 1476 194L1512 187L1512 351L1476 351C1440 351 1368 351 1296 351C1224 351 1152 351 1080 351C1008 351 936 351 864 351C792 351 720 351 648 351C576 351 504 351 432 351C360 351 288 351 216 351C144 351 72 351 36 351L0 351Z" fill="#67eac4"></path><path d="M0 281L36 290.8C72 300.7 144 320.3 216 330.3C288 340.3 360 340.7 432 329.7C504 318.7 576 296.3 648 289C720 281.7 792 289.3 864 300.5C936 311.7 1008 326.3 1080 321C1152 315.7 1224 290.3 1296 288.2C1368 286 1440 307 1476 317.5L1512 328L1512 351L1476 351C1440 351 1368 351 1296 351C1224 351 1152 351 1080 351C1008 351 936 351 864 351C792 351 720 351 648 351C576 351 504 351 432 351C360 351 288 351 216 351C144 351 72 351 36 351L0 351Z" fill="#66ffcc"></path></svg>