<svg id="visual" viewBox="0 0 1512 300" width="1512" height="300" xmlns="http://www.w3.org/2000/svg" xmlns:xlink="http://www.w3.org/1999/xlink" version="1.1"><rect width="1512" height="300" fill="#1A1A1A"></rect><g><g transform="translate(495 126)"><path d="M0 -65.5L65.5 0L0 65.5L-65.5 0Z" fill="none" stroke="#F7760E" stroke-width="9"></path></g><g transform="translate(1183 160)"><path d="M0 -56L56 0L0 56L-56 0Z" stroke="#F7760E" fill="none" stroke-width="9"></path></g><g transform="translate(248 145)"><path d="M0 -38L38 0L0 38L-38 0Z" stroke="#F7760E" fill="none" stroke-width="9"></path></g><g transform="translate(1391 101)"><path d="M0 -49L49 0L0 49L-49 0Z" stroke="#F7760E" fill="none" stroke-width="9"></path></g><g transform="translate(934 163)"><path d="M0 -35L35 0L0 35L-35 0Z" stroke="#F7760E" fill="none" stroke-width="9"></path></g><g transform="translate(395 224)"><path d="M0 -20L20 0L0 20L-20 0Z" stroke="#F7760E" fill="none" stroke-width="9"></path></g><g transform="translate(639 67)"><path d="M0 -23L23 0L0 23L-23 0Z" stroke="#F7760E" fill="none" stroke-width="9"></path></g><g transform="translate(714 175)"><path d="M0 -58L58 0L0 58L-58 0Z" stroke="#F7760E" fill="none" stroke-width="9"></path></g><g transform="translate(86 126)"><path d="M0 -29L29 0L0 29L-29 0Z" stroke="#F7760E" fill="none" stroke-width="9"></path></g><g transform="translate(826 75)"><path d="M0 -24L24 0L0 24L-24 0Z" stroke="#F7760E" fill="none" stroke-width="9"></path></g><g transform="translate(1060 71)"><path d="M0 -64L64 0L0 64L-64 0Z" stroke="#F7760E" fill="none" stroke-width="9"></path></g><g transform="translate(1354 230)"><path d="M0 -56L56 0L0 56L-56 0Z" stroke="#F7760E" fill="none" stroke-width="9"></path></g><g transform="translate(1067 231)"><path d="M0 -61L61 0L0 61L-61 0Z" stroke="#F7760E" fill="none" stroke-width="9"></path></g></g></svg>