<svg id="visual" viewBox="0 0 1512 300" width="1512" height="300" xmlns="http://www.w3.org/2000/svg" xmlns:xlink="http://www.w3.org/1999/xlink" version="1.1"><rect width="1512" height="300" fill="#1A1A1A"></rect><g><g transform="translate(443 222)"><path d="M0 -65.5L65.5 0L0 65.5L-65.5 0Z" fill="none" stroke="#F7760E" stroke-width="9"></path></g><g transform="translate(880 75)"><path d="M0 -35L35 0L0 35L-35 0Z" stroke="#F7760E" fill="none" stroke-width="9"></path></g><g transform="translate(1182 180)"><path d="M0 -58L58 0L0 58L-58 0Z" stroke="#F7760E" fill="none" stroke-width="9"></path></g><g transform="translate(323 80)"><path d="M0 -25L25 0L0 25L-25 0Z" stroke="#F7760E" fill="none" stroke-width="9"></path></g><g transform="translate(1303 111)"><path d="M0 -53L53 0L0 53L-53 0Z" stroke="#F7760E" fill="none" stroke-width="9"></path></g><g transform="translate(1052 133)"><path d="M0 -16L16 0L0 16L-16 0Z" stroke="#F7760E" fill="none" stroke-width="9"></path></g><g transform="translate(785 168)"><path d="M0 -55L55 0L0 55L-55 0Z" stroke="#F7760E" fill="none" stroke-width="9"></path></g><g transform="translate(87 81)"><path d="M0 -31L31 0L0 31L-31 0Z" stroke="#F7760E" fill="none" stroke-width="9"></path></g><g transform="translate(921 205)"><path d="M0 -36L36 0L0 36L-36 0Z" stroke="#F7760E" fill="none" stroke-width="9"></path></g><g transform="translate(1417 202)"><path d="M0 -27L27 0L0 27L-27 0Z" stroke="#F7760E" fill="none" stroke-width="9"></path></g><g transform="translate(260 199)"><path d="M0 -58L58 0L0 58L-58 0Z" stroke="#F7760E" fill="none" stroke-width="9"></path></g><g transform="translate(582 233)"><path d="M0 -47L47 0L0 47L-47 0Z" stroke="#F7760E" fill="none" stroke-width="9"></path></g><g transform="translate(563 90)"><path d="M0 -28L28 0L0 28L-28 0Z" stroke="#F7760E" fill="none" stroke-width="9"></path></g><g transform="translate(701 67)"><path d="M0 -45L45 0L0 45L-45 0Z" stroke="#F7760E" fill="none" stroke-width="9"></path></g><g transform="translate(102 220)"><path d="M0 -42L42 0L0 42L-42 0Z" stroke="#F7760E" fill="none" stroke-width="9"></path></g></g></svg>