<svg id="visual" viewBox="0 0 1512 300" width="1512" height="300" xmlns="http://www.w3.org/2000/svg" xmlns:xlink="http://www.w3.org/1999/xlink" version="1.1"><rect width="1512" height="300" fill="#1A1A1A"></rect><g><g transform="translate(1267 190)"><path d="M0 -65.5L65.5 0L0 65.5L-65.5 0Z" fill="none" stroke="#F7760E" stroke-width="9"></path></g><g transform="translate(297 234)"><path d="M0 -19L19 0L0 19L-19 0Z" stroke="#F7760E" fill="none" stroke-width="9"></path></g><g transform="translate(270 70)"><path d="M0 -55L55 0L0 55L-55 0Z" stroke="#F7760E" fill="none" stroke-width="9"></path></g><g transform="translate(1044 130)"><path d="M0 -22L22 0L0 22L-22 0Z" stroke="#F7760E" fill="none" stroke-width="9"></path></g><g transform="translate(484 102)"><path d="M0 -52L52 0L0 52L-52 0Z" stroke="#F7760E" fill="none" stroke-width="9"></path></g><g transform="translate(802 110)"><path d="M0 -46L46 0L0 46L-46 0Z" stroke="#F7760E" fill="none" stroke-width="9"></path></g><g transform="translate(134 115)"><path d="M0 -45L45 0L0 45L-45 0Z" stroke="#F7760E" fill="none" stroke-width="9"></path></g><g transform="translate(694 189)"><path d="M0 -16L16 0L0 16L-16 0Z" stroke="#F7760E" fill="none" stroke-width="9"></path></g><g transform="translate(1422 170)"><path d="M0 -30L30 0L0 30L-30 0Z" stroke="#F7760E" fill="none" stroke-width="9"></path></g><g transform="translate(921 226)"><path d="M0 -19L19 0L0 19L-19 0Z" stroke="#F7760E" fill="none" stroke-width="9"></path></g><g transform="translate(1322 68)"><path d="M0 -54L54 0L0 54L-54 0Z" stroke="#F7760E" fill="none" stroke-width="9"></path></g><g transform="translate(558 227)"><path d="M0 -60L60 0L0 60L-60 0Z" stroke="#F7760E" fill="none" stroke-width="9"></path></g><g transform="translate(638 70)"><path d="M0 -59L59 0L0 59L-59 0Z" stroke="#F7760E" fill="none" stroke-width="9"></path></g><g transform="translate(1190 83)"><path d="M0 -49L49 0L0 49L-49 0Z" stroke="#F7760E" fill="none" stroke-width="9"></path></g><g transform="translate(927 70)"><path d="M0 -64L64 0L0 64L-64 0Z" stroke="#F7760E" fill="none" stroke-width="9"></path></g></g></svg>