<svg id="visual" viewBox="0 0 1512 400" width="1512" height="400" xmlns="http://www.w3.org/2000/svg" xmlns:xlink="http://www.w3.org/1999/xlink" version="1.1"><rect x="0" y="0" width="1512" height="400" fill="#FFFFE6"></rect><path d="M0 142L36 134.2C72 126.3 144 110.7 216 98.8C288 87 360 79 432 95.7C504 112.3 576 153.7 648 156.5C720 159.3 792 123.7 864 118.5C936 113.3 1008 138.7 1080 153.3C1152 168 1224 172 1296 175.7C1368 179.3 1440 182.7 1476 184.3L1512 186L1512 401L1476 401C1440 401 1368 401 1296 401C1224 401 1152 401 1080 401C1008 401 936 401 864 401C792 401 720 401 648 401C576 401 504 401 432 401C360 401 288 401 216 401C144 401 72 401 36 401L0 401Z" fill="#fa7268"></path><path d="M0 205L36 192.7C72 180.3 144 155.7 216 148.8C288 142 360 153 432 157.3C504 161.7 576 159.3 648 169.8C720 180.3 792 203.7 864 209.8C936 216 1008 205 1080 194C1152 183 1224 172 1296 171.3C1368 170.7 1440 180.3 1476 185.2L1512 190L1512 401L1476 401C1440 401 1368 401 1296 401C1224 401 1152 401 1080 401C1008 401 936 401 864 401C792 401 720 401 648 401C576 401 504 401 432 401C360 401 288 401 216 401C144 401 72 401 36 401L0 401Z" fill="#fb936d"></path><path d="M0 187L36 202.2C72 217.3 144 247.7 216 248C288 248.3 360 218.7 432 215.7C504 212.7 576 236.3 648 247.2C720 258 792 256 864 253.2C936 250.3 1008 246.7 1080 235.8C1152 225 1224 207 1296 209C1368 211 1440 233 1476 244L1512 255L1512 401L1476 401C1440 401 1368 401 1296 401C1224 401 1152 401 1080 401C1008 401 936 401 864 401C792 401 720 401 648 401C576 401 504 401 432 401C360 401 288 401 216 401C144 401 72 401 36 401L0 401Z" fill="#f9b07d"></path><path d="M0 249L36 261.5C72 274 144 299 216 308.7C288 318.3 360 312.7 432 306.2C504 299.7 576 292.3 648 290.2C720 288 792 291 864 283.8C936 276.7 1008 259.3 1080 261C1152 262.7 1224 283.3 1296 292.5C1368 301.7 1440 299.3 1476 298.2L1512 297L1512 401L1476 401C1440 401 1368 401 1296 401C1224 401 1152 401 1080 401C1008 401 936 401 864 401C792 401 720 401 648 401C576 401 504 401 432 401C360 401 288 401 216 401C144 401 72 401 36 401L0 401Z" fill="#f7cb96"></path><path d="M0 343L36 337.5C72 332 144 321 216 316.5C288 312 360 314 432 313.3C504 312.7 576 309.3 648 316.3C720 323.3 792 340.7 864 347.8C936 355 1008 352 1080 347.3C1152 342.7 1224 336.3 1296 338.8C1368 341.3 1440 352.7 1476 358.3L1512 364L1512 401L1476 401C1440 401 1368 401 1296 401C1224 401 1152 401 1080 401C1008 401 936 401 864 401C792 401 720 401 648 401C576 401 504 401 432 401C360 401 288 401 216 401C144 401 72 401 36 401L0 401Z" fill="#f7e3b6"></path></svg>