<svg id="visual" viewBox="0 0 1512 350" width="1512" height="350" xmlns="http://www.w3.org/2000/svg" xmlns:xlink="http://www.w3.org/1999/xlink" version="1.1"><rect x="0" y="0" width="1512" height="350" fill="#F7E3B6"></rect><path d="M0 90L216 73L432 64L648 109L864 59L1080 123L1296 90L1512 150L1512 351L1296 351L1080 351L864 351L648 351L432 351L216 351L0 351Z" fill="#b2d4e7"></path><path d="M0 201L216 173L432 156L648 147L864 209L1080 162L1296 159L1512 119L1512 351L1296 351L1080 351L864 351L648 351L432 351L216 351L0 351Z" fill="#819bb4"></path><path d="M0 210L216 179L432 237L648 165L864 244L1080 171L1296 211L1512 161L1512 351L1296 351L1080 351L864 351L648 351L432 351L216 351L0 351Z" fill="#566582"></path><path d="M0 229L216 246L432 261L648 270L864 258L1080 243L1296 283L1512 234L1512 351L1296 351L1080 351L864 351L648 351L432 351L216 351L0 351Z" fill="#323350"></path><path d="M0 282L216 276L432 285L648 294L864 305L1080 301L1296 309L1512 281L1512 351L1296 351L1080 351L864 351L648 351L432 351L216 351L0 351Z" fill="#140021"></path></svg>