<svg id="visual" viewBox="0 0 1512 300" width="1512" height="300" xmlns="http://www.w3.org/2000/svg" xmlns:xlink="http://www.w3.org/1999/xlink" version="1.1"><path d="M0 19L22.8 21.5C45.7 24 91.3 29 137.2 30C183 31 229 28 274.8 27.5C320.7 27 366.3 29 412.2 28C458 27 504 23 549.8 20C595.7 17 641.3 15 687.2 14.5C733 14 779 15 824.8 16C870.7 17 916.3 18 962.2 17.5C1008 17 1054 15 1099.8 15C1145.7 15 1191.3 17 1237.2 18.5C1283 20 1329 21 1374.8 22C1420.7 23 1466.3 24 1489.2 24.5L1512 25L1512 0L1489.2 0C1466.3 0 1420.7 0 1374.8 0C1329 0 1283 0 1237.2 0C1191.3 0 1145.7 0 1099.8 0C1054 0 1008 0 962.2 0C916.3 0 870.7 0 824.8 0C779 0 733 0 687.2 0C641.3 0 595.7 0 549.8 0C504 0 458 0 412.2 0C366.3 0 320.7 0 274.8 0C229 0 183 0 137.2 0C91.3 0 45.7 0 22.8 0L0 0Z" fill="#0e0e0e"></path><path d="M0 115L22.8 112.5C45.7 110 91.3 105 137.2 108.5C183 112 229 124 274.8 130C320.7 136 366.3 136 412.2 130C458 124 504 112 549.8 107.5C595.7 103 641.3 106 687.2 98.5C733 91 779 73 824.8 68.5C870.7 64 916.3 73 962.2 73C1008 73 1054 64 1099.8 66C1145.7 68 1191.3 81 1237.2 89.5C1283 98 1329 102 1374.8 97.5C1420.7 93 1466.3 80 1489.2 73.5L1512 67L1512 23L1489.2 22.5C1466.3 22 1420.7 21 1374.8 20C1329 19 1283 18 1237.2 16.5C1191.3 15 1145.7 13 1099.8 13C1054 13 1008 15 962.2 15.5C916.3 16 870.7 15 824.8 14C779 13 733 12 687.2 12.5C641.3 13 595.7 15 549.8 18C504 21 458 25 412.2 26C366.3 27 320.7 25 274.8 25.5C229 26 183 29 137.2 28C91.3 27 45.7 22 22.8 19.5L0 17Z" fill="#0f0f0f"></path><path d="M0 160L22.8 155C45.7 150 91.3 140 137.2 143C183 146 229 162 274.8 168C320.7 174 366.3 170 412.2 160C458 150 504 134 549.8 129C595.7 124 641.3 130 687.2 127C733 124 779 112 824.8 107C870.7 102 916.3 104 962.2 102.5C1008 101 1054 96 1099.8 101C1145.7 106 1191.3 121 1237.2 128.5C1283 136 1329 136 1374.8 130C1420.7 124 1466.3 112 1489.2 106L1512 100L1512 65L1489.2 71.5C1466.3 78 1420.7 91 1374.8 95.5C1329 100 1283 96 1237.2 87.5C1191.3 79 1145.7 66 1099.8 64C1054 62 1008 71 962.2 71C916.3 71 870.7 62 824.8 66.5C779 71 733 89 687.2 96.5C641.3 104 595.7 101 549.8 105.5C504 110 458 122 412.2 128C366.3 134 320.7 134 274.8 128C229 122 183 110 137.2 106.5C91.3 103 45.7 108 22.8 110.5L0 113Z" fill="#111111"></path><path d="M0 178L22.8 174C45.7 170 91.3 162 137.2 166C183 170 229 186 274.8 195.5C320.7 205 366.3 208 412.2 197.5C458 187 504 163 549.8 156C595.7 149 641.3 159 687.2 157C733 155 779 141 824.8 138C870.7 135 916.3 143 962.2 145.5C1008 148 1054 145 1099.8 147.5C1145.7 150 1191.3 158 1237.2 161C1283 164 1329 162 1374.8 157C1420.7 152 1466.3 144 1489.2 140L1512 136L1512 98L1489.2 104C1466.3 110 1420.7 122 1374.8 128C1329 134 1283 134 1237.2 126.5C1191.3 119 1145.7 104 1099.8 99C1054 94 1008 99 962.2 100.5C916.3 102 870.7 100 824.8 105C779 110 733 122 687.2 125C641.3 128 595.7 122 549.8 127C504 132 458 148 412.2 158C366.3 168 320.7 172 274.8 166C229 160 183 144 137.2 141C91.3 138 45.7 148 22.8 153L0 158Z" fill="#121212"></path><path d="M0 190L22.8 186.5C45.7 183 91.3 176 137.2 180.5C183 185 229 201 274.8 212C320.7 223 366.3 229 412.2 222C458 215 504 195 549.8 187C595.7 179 641.3 183 687.2 179C733 175 779 163 824.8 162.5C870.7 162 916.3 173 962.2 176.5C1008 180 1054 176 1099.8 175.5C1145.7 175 1191.3 178 1237.2 181.5C1283 185 1329 189 1374.8 184.5C1420.7 180 1466.3 167 1489.2 160.5L1512 154L1512 134L1489.2 138C1466.3 142 1420.7 150 1374.8 155C1329 160 1283 162 1237.2 159C1191.3 156 1145.7 148 1099.8 145.5C1054 143 1008 146 962.2 143.5C916.3 141 870.7 133 824.8 136C779 139 733 153 687.2 155C641.3 157 595.7 147 549.8 154C504 161 458 185 412.2 195.5C366.3 206 320.7 203 274.8 193.5C229 184 183 168 137.2 164C91.3 160 45.7 168 22.8 172L0 176Z" fill="#1e1e1e"></path><path d="M0 232L22.8 236.5C45.7 241 91.3 250 137.2 255.5C183 261 229 263 274.8 265.5C320.7 268 366.3 271 412.2 268C458 265 504 256 549.8 250.5C595.7 245 641.3 243 687.2 241.5C733 240 779 239 824.8 240C870.7 241 916.3 244 962.2 245C1008 246 1054 245 1099.8 249C1145.7 253 1191.3 262 1237.2 261C1283 260 1329 249 1374.8 245C1420.7 241 1466.3 244 1489.2 245.5L1512 247L1512 152L1489.2 158.5C1466.3 165 1420.7 178 1374.8 182.5C1329 187 1283 183 1237.2 179.5C1191.3 176 1145.7 173 1099.8 173.5C1054 174 1008 178 962.2 174.5C916.3 171 870.7 160 824.8 160.5C779 161 733 173 687.2 177C641.3 181 595.7 177 549.8 185C504 193 458 213 412.2 220C366.3 227 320.7 221 274.8 210C229 199 183 183 137.2 178.5C91.3 174 45.7 181 22.8 184.5L0 188Z" fill="#292929"></path><path d="M0 301L22.8 301C45.7 301 91.3 301 137.2 301C183 301 229 301 274.8 301C320.7 301 366.3 301 412.2 301C458 301 504 301 549.8 301C595.7 301 641.3 301 687.2 301C733 301 779 301 824.8 301C870.7 301 916.3 301 962.2 301C1008 301 1054 301 1099.8 301C1145.7 301 1191.3 301 1237.2 301C1283 301 1329 301 1374.8 301C1420.7 301 1466.3 301 1489.2 301L1512 301L1512 245L1489.2 243.5C1466.3 242 1420.7 239 1374.8 243C1329 247 1283 258 1237.2 259C1191.3 260 1145.7 251 1099.8 247C1054 243 1008 244 962.2 243C916.3 242 870.7 239 824.8 238C779 237 733 238 687.2 239.5C641.3 241 595.7 243 549.8 248.5C504 254 458 263 412.2 266C366.3 269 320.7 266 274.8 263.5C229 261 183 259 137.2 253.5C91.3 248 45.7 239 22.8 234.5L0 230Z" fill="#353535"></path></svg>