<svg id="visual" viewBox="0 0 1512 300" width="1512" height="300" xmlns="http://www.w3.org/2000/svg" xmlns:xlink="http://www.w3.org/1999/xlink" version="1.1"><rect x="0" y="0" width="1512" height="300" fill="#121212"></rect><path d="M0 136L216 89L432 57L648 92L864 58L1080 130L1296 102L1512 83L1512 301L1296 301L1080 301L864 301L648 301L432 301L216 301L0 301Z" fill="#87cefa"></path><path d="M0 169L216 151L432 136L648 133L864 146L1080 111L1296 156L1512 121L1512 301L1296 301L1080 301L864 301L648 301L432 301L216 301L0 301Z" fill="#6999b9"></path><path d="M0 204L216 140L432 160L648 202L864 194L1080 192L1296 159L1512 192L1512 301L1296 301L1080 301L864 301L648 301L432 301L216 301L0 301Z" fill="#4b687c"></path><path d="M0 186L216 192L432 210L648 196L864 207L1080 187L1296 238L1512 230L1512 301L1296 301L1080 301L864 301L648 301L432 301L216 301L0 301Z" fill="#2e3b44"></path><path d="M0 231L216 250L432 250L648 232L864 247L1080 238L1296 272L1512 234L1512 301L1296 301L1080 301L864 301L648 301L432 301L216 301L0 301Z" fill="#121212"></path></svg>