<svg id="visual" viewBox="0 0 1512 350" width="1512" height="350" xmlns="http://www.w3.org/2000/svg" xmlns:xlink="http://www.w3.org/1999/xlink" version="1.1"><rect x="0" y="0" width="1512" height="350" fill="#FFFFE6"></rect><path d="M0 157L216 82L432 161L648 95L864 122L1080 70L1296 78L1512 122L1512 351L1296 351L1080 351L864 351L648 351L432 351L216 351L0 351Z" fill="#f5730a"></path><path d="M0 121L216 210L432 134L648 165L864 120L1080 167L1296 110L1512 133L1512 351L1296 351L1080 351L864 351L648 351L432 351L216 351L0 351Z" fill="#f8812b"></path><path d="M0 175L216 237L432 236L648 216L864 173L1080 243L1296 165L1512 227L1512 351L1296 351L1080 351L864 351L648 351L432 351L216 351L0 351Z" fill="#fb8e43"></path><path d="M0 245L216 250L432 245L648 276L864 242L1080 260L1296 227L1512 275L1512 351L1296 351L1080 351L864 351L648 351L432 351L216 351L0 351Z" fill="#fd9b59"></path><path d="M0 299L216 284L432 302L648 295L864 310L1080 294L1296 262L1512 263L1512 351L1296 351L1080 351L864 351L648 351L432 351L216 351L0 351Z" fill="#ffa86e"></path></svg>