<svg id="visual" viewBox="0 0 1512 350" width="1512" height="350" xmlns="http://www.w3.org/2000/svg" xmlns:xlink="http://www.w3.org/1999/xlink" version="1.1"><rect x="0" y="0" width="1512" height="350" fill="#FFA86E"></rect><path d="M0 66L302 66L302 63L605 63L605 89L907 89L907 65L1210 65L1210 86L1512 86L1512 87L1512 351L1512 351L1210 351L1210 351L907 351L907 351L605 351L605 351L302 351L302 351L0 351Z" fill="#ff7f2a"></path><path d="M0 128L302 128L302 109L605 109L605 107L907 107L907 125L1210 125L1210 129L1512 129L1512 116L1512 351L1512 351L1210 351L1210 351L907 351L907 351L605 351L605 351L302 351L302 351L0 351Z" fill="#df5144"></path><path d="M0 172L302 172L302 185L605 185L605 170L907 170L907 185L1210 185L1210 166L1512 166L1512 182L1512 351L1512 351L1210 351L1210 351L907 351L907 351L605 351L605 351L302 351L302 351L0 351Z" fill="#b0304f"></path><path d="M0 230L302 230L302 207L605 207L605 230L907 230L907 219L1210 219L1210 197L1512 197L1512 198L1512 351L1512 351L1210 351L1210 351L907 351L907 351L605 351L605 351L302 351L302 351L0 351Z" fill="#791e4d"></path><path d="M0 251L302 251L302 246L605 246L605 272L907 272L907 253L1210 253L1210 243L1512 243L1512 250L1512 351L1512 351L1210 351L1210 351L907 351L907 351L605 351L605 351L302 351L302 351L0 351Z" fill="#41143d"></path><path d="M0 301L302 301L302 298L605 298L605 304L907 304L907 295L1210 295L1210 308L1512 308L1512 292L1512 351L1512 351L1210 351L1210 351L907 351L907 351L605 351L605 351L302 351L302 351L0 351Z" fill="#140021"></path></svg>