<svg id="visual" viewBox="0 0 1512 250" width="1512" height="250" xmlns="http://www.w3.org/2000/svg" xmlns:xlink="http://www.w3.org/1999/xlink" version="1.1"><rect x="0" y="0" width="1512" height="250" fill="#FFA86E"></rect><path d="M0 197L76 206L151 187L227 192L302 214L378 198L454 209L529 186L605 209L680 187L756 203L832 199L907 182L983 201L1058 204L1134 204L1210 182L1285 180L1361 191L1436 213L1512 208L1512 0L1436 0L1361 0L1285 0L1210 0L1134 0L1058 0L983 0L907 0L832 0L756 0L680 0L605 0L529 0L454 0L378 0L302 0L227 0L151 0L76 0L0 0Z" fill="#f5730a"></path><path d="M0 147L76 153L151 133L227 164L302 154L378 152L454 148L529 131L605 166L680 168L756 157L832 159L907 137L983 132L1058 133L1134 154L1210 166L1285 142L1361 133L1436 164L1512 159L1512 0L1436 0L1361 0L1285 0L1210 0L1134 0L1058 0L983 0L907 0L832 0L756 0L680 0L605 0L529 0L454 0L378 0L302 0L227 0L151 0L76 0L0 0Z" fill="#fc652a"></path><path d="M0 105L76 92L151 106L227 87L302 79L378 114L454 91L529 83L605 84L680 110L756 93L832 119L907 96L983 92L1058 92L1134 106L1210 100L1285 88L1361 114L1436 91L1512 112L1512 0L1436 0L1361 0L1285 0L1210 0L1134 0L1058 0L983 0L907 0L832 0L756 0L680 0L605 0L529 0L454 0L378 0L302 0L227 0L151 0L76 0L0 0Z" fill="#ff583f"></path><path d="M0 40L76 64L151 43L227 52L302 48L378 37L454 56L529 51L605 49L680 61L756 41L832 38L907 37L983 43L1058 39L1134 34L1210 65L1285 33L1361 40L1436 34L1512 63L1512 0L1436 0L1361 0L1285 0L1210 0L1134 0L1058 0L983 0L907 0L832 0L756 0L680 0L605 0L529 0L454 0L378 0L302 0L227 0L151 0L76 0L0 0Z" fill="#ff4c52"></path></svg>