<svg id="visual" viewBox="0 0 1512 500" width="1512" height="500" xmlns="http://www.w3.org/2000/svg" xmlns:xlink="http://www.w3.org/1999/xlink" version="1.1"><rect x="0" y="0" width="1512" height="500" fill="#ff4c52"></rect><path d="M0 353L36 354.7C72 356.3 144 359.7 216 365.2C288 370.7 360 378.3 432 385.5C504 392.7 576 399.3 648 400.2C720 401 792 396 864 387.5C936 379 1008 367 1080 358.5C1152 350 1224 345 1296 350.5C1368 356 1440 372 1476 380L1512 388L1512 0L1476 0C1440 0 1368 0 1296 0C1224 0 1152 0 1080 0C1008 0 936 0 864 0C792 0 720 0 648 0C576 0 504 0 432 0C360 0 288 0 216 0C144 0 72 0 36 0L0 0Z" fill="#ff4c52"></path><path d="M0 260L36 262.2C72 264.3 144 268.7 216 275.2C288 281.7 360 290.3 432 293.8C504 297.3 576 295.7 648 293.3C720 291 792 288 864 286C936 284 1008 283 1080 279C1152 275 1224 268 1296 274.3C1368 280.7 1440 300.3 1476 310.2L1512 320L1512 0L1476 0C1440 0 1368 0 1296 0C1224 0 1152 0 1080 0C1008 0 936 0 864 0C792 0 720 0 648 0C576 0 504 0 432 0C360 0 288 0 216 0C144 0 72 0 36 0L0 0Z" fill="#c7326e"></path><path d="M0 213L36 218.5C72 224 144 235 216 238.5C288 242 360 238 432 237.8C504 237.7 576 241.3 648 241.8C720 242.3 792 239.7 864 236C936 232.3 1008 227.7 1080 225.3C1152 223 1224 223 1296 220.8C1368 218.7 1440 214.3 1476 212.2L1512 210L1512 0L1476 0C1440 0 1368 0 1296 0C1224 0 1152 0 1080 0C1008 0 936 0 864 0C792 0 720 0 648 0C576 0 504 0 432 0C360 0 288 0 216 0C144 0 72 0 36 0L0 0Z" fill="#7f3171"></path><path d="M0 172L36 172.5C72 173 144 174 216 176.8C288 179.7 360 184.3 432 178.5C504 172.7 576 156.3 648 149.3C720 142.3 792 144.7 864 143.8C936 143 1008 139 1080 139C1152 139 1224 143 1296 144C1368 145 1440 143 1476 142L1512 141L1512 0L1476 0C1440 0 1368 0 1296 0C1224 0 1152 0 1080 0C1008 0 936 0 864 0C792 0 720 0 648 0C576 0 504 0 432 0C360 0 288 0 216 0C144 0 72 0 36 0L0 0Z" fill="#3a2b59"></path><path d="M0 115L36 111.8C72 108.7 144 102.3 216 96.5C288 90.7 360 85.3 432 86.2C504 87 576 94 648 99.2C720 104.3 792 107.7 864 102.8C936 98 1008 85 1080 83C1152 81 1224 90 1296 86.5C1368 83 1440 67 1476 59L1512 51L1512 0L1476 0C1440 0 1368 0 1296 0C1224 0 1152 0 1080 0C1008 0 936 0 864 0C792 0 720 0 648 0C576 0 504 0 432 0C360 0 288 0 216 0C144 0 72 0 36 0L0 0Z" fill="#0a192f"></path></svg>