<svg id="visual" viewBox="0 0 1512 350" width="1512" height="350" xmlns="http://www.w3.org/2000/svg" xmlns:xlink="http://www.w3.org/1999/xlink" version="1.1"><rect x="0" y="0" width="1512" height="350" fill="#140021"></rect><path d="M0 146L36 145.3C72 144.7 144 143.3 216 143.8C288 144.3 360 146.7 432 151.2C504 155.7 576 162.3 648 166.2C720 170 792 171 864 163.8C936 156.7 1008 141.3 1080 143.3C1152 145.3 1224 164.7 1296 167.2C1368 169.7 1440 155.3 1476 148.2L1512 141L1512 351L1476 351C1440 351 1368 351 1296 351C1224 351 1152 351 1080 351C1008 351 936 351 864 351C792 351 720 351 648 351C576 351 504 351 432 351C360 351 288 351 216 351C144 351 72 351 36 351L0 351Z" fill="#fa7268"></path><path d="M0 243L36 239.7C72 236.3 144 229.7 216 230.3C288 231 360 239 432 233.7C504 228.3 576 209.7 648 208.8C720 208 792 225 864 226.2C936 227.3 1008 212.7 1080 202.3C1152 192 1224 186 1296 187C1368 188 1440 196 1476 200L1512 204L1512 351L1476 351C1440 351 1368 351 1296 351C1224 351 1152 351 1080 351C1008 351 936 351 864 351C792 351 720 351 648 351C576 351 504 351 432 351C360 351 288 351 216 351C144 351 72 351 36 351L0 351Z" fill="#cb9c49"></path><path d="M0 238L36 236C72 234 144 230 216 237.8C288 245.7 360 265.3 432 268.8C504 272.3 576 259.7 648 255C720 250.3 792 253.7 864 249.5C936 245.3 1008 233.7 1080 234.8C1152 236 1224 250 1296 256.5C1368 263 1440 262 1476 261.5L1512 261L1512 351L1476 351C1440 351 1368 351 1296 351C1224 351 1152 351 1080 351C1008 351 936 351 864 351C792 351 720 351 648 351C576 351 504 351 432 351C360 351 288 351 216 351C144 351 72 351 36 351L0 351Z" fill="#91b672"></path><path d="M0 306L36 301C72 296 144 286 216 283.5C288 281 360 286 432 287.3C504 288.7 576 286.3 648 282.7C720 279 792 274 864 276.5C936 279 1008 289 1080 294.3C1152 299.7 1224 300.3 1296 297.5C1368 294.7 1440 288.3 1476 285.2L1512 282L1512 351L1476 351C1440 351 1368 351 1296 351C1224 351 1152 351 1080 351C1008 351 936 351 864 351C792 351 720 351 648 351C576 351 504 351 432 351C360 351 288 351 216 351C144 351 72 351 36 351L0 351Z" fill="#6fc2b0"></path></svg>