<svg id="visual" viewBox="0 0 1512 250" width="1512" height="250" xmlns="http://www.w3.org/2000/svg" xmlns:xlink="http://www.w3.org/1999/xlink" version="1.1"><rect x="0" y="0" width="1512" height="250" fill="#FF4C52"></rect><path d="M0 213L16.8 210.8C33.7 208.7 67.3 204.3 101 203.3C134.7 202.3 168.3 204.7 201.8 206.7C235.3 208.7 268.7 210.3 302.2 208.8C335.7 207.3 369.3 202.7 403 201.8C436.7 201 470.3 204 504 202.8C537.7 201.7 571.3 196.3 605 194.7C638.7 193 672.3 195 705.8 197C739.3 199 772.7 201 806.2 202.5C839.7 204 873.3 205 907 203.8C940.7 202.7 974.3 199.3 1008 202C1041.7 204.7 1075.3 213.3 1109 214.8C1142.7 216.3 1176.3 210.7 1209.8 207.5C1243.3 204.3 1276.7 203.7 1310.2 202.2C1343.7 200.7 1377.3 198.3 1411 196.8C1444.7 195.3 1478.3 194.7 1495.2 194.3L1512 194L1512 0L1495.2 0C1478.3 0 1444.7 0 1411 0C1377.3 0 1343.7 0 1310.2 0C1276.7 0 1243.3 0 1209.8 0C1176.3 0 1142.7 0 1109 0C1075.3 0 1041.7 0 1008 0C974.3 0 940.7 0 907 0C873.3 0 839.7 0 806.2 0C772.7 0 739.3 0 705.8 0C672.3 0 638.7 0 605 0C571.3 0 537.7 0 504 0C470.3 0 436.7 0 403 0C369.3 0 335.7 0 302.2 0C268.7 0 235.3 0 201.8 0C168.3 0 134.7 0 101 0C67.3 0 33.7 0 16.8 0L0 0Z" fill="#ff4c52"></path><path d="M0 156L16.8 156.2C33.7 156.3 67.3 156.7 101 157.3C134.7 158 168.3 159 201.8 163.2C235.3 167.3 268.7 174.7 302.2 178.3C335.7 182 369.3 182 403 176.8C436.7 171.7 470.3 161.3 504 160.3C537.7 159.3 571.3 167.7 605 168.3C638.7 169 672.3 162 705.8 163C739.3 164 772.7 173 806.2 172.3C839.7 171.7 873.3 161.3 907 156C940.7 150.7 974.3 150.3 1008 151.5C1041.7 152.7 1075.3 155.3 1109 156.2C1142.7 157 1176.3 156 1209.8 155C1243.3 154 1276.7 153 1310.2 156.2C1343.7 159.3 1377.3 166.7 1411 171.3C1444.7 176 1478.3 178 1495.2 179L1512 180L1512 0L1495.2 0C1478.3 0 1444.7 0 1411 0C1377.3 0 1343.7 0 1310.2 0C1276.7 0 1243.3 0 1209.8 0C1176.3 0 1142.7 0 1109 0C1075.3 0 1041.7 0 1008 0C974.3 0 940.7 0 907 0C873.3 0 839.7 0 806.2 0C772.7 0 739.3 0 705.8 0C672.3 0 638.7 0 605 0C571.3 0 537.7 0 504 0C470.3 0 436.7 0 403 0C369.3 0 335.7 0 302.2 0C268.7 0 235.3 0 201.8 0C168.3 0 134.7 0 101 0C67.3 0 33.7 0 16.8 0L0 0Z" fill="#c7326e"></path><path d="M0 132L16.8 130.3C33.7 128.7 67.3 125.3 101 126.2C134.7 127 168.3 132 201.8 130.2C235.3 128.3 268.7 119.7 302.2 119.2C335.7 118.7 369.3 126.3 403 130.8C436.7 135.3 470.3 136.7 504 135.8C537.7 135 571.3 132 605 131.2C638.7 130.3 672.3 131.7 705.8 132C739.3 132.3 772.7 131.7 806.2 130.8C839.7 130 873.3 129 907 126.2C940.7 123.3 974.3 118.7 1008 119C1041.7 119.3 1075.3 124.7 1109 124.5C1142.7 124.3 1176.3 118.7 1209.8 118.8C1243.3 119 1276.7 125 1310.2 125.3C1343.7 125.7 1377.3 120.3 1411 118.8C1444.7 117.3 1478.3 119.7 1495.2 120.8L1512 122L1512 0L1495.2 0C1478.3 0 1444.7 0 1411 0C1377.3 0 1343.7 0 1310.2 0C1276.7 0 1243.3 0 1209.8 0C1176.3 0 1142.7 0 1109 0C1075.3 0 1041.7 0 1008 0C974.3 0 940.7 0 907 0C873.3 0 839.7 0 806.2 0C772.7 0 739.3 0 705.8 0C672.3 0 638.7 0 605 0C571.3 0 537.7 0 504 0C470.3 0 436.7 0 403 0C369.3 0 335.7 0 302.2 0C268.7 0 235.3 0 201.8 0C168.3 0 134.7 0 101 0C67.3 0 33.7 0 16.8 0L0 0Z" fill="#7f3171"></path><path d="M0 92L16.8 92.8C33.7 93.7 67.3 95.3 101 92.2C134.7 89 168.3 81 201.8 79.3C235.3 77.7 268.7 82.3 302.2 83.7C335.7 85 369.3 83 403 80.2C436.7 77.3 470.3 73.7 504 71.2C537.7 68.7 571.3 67.3 605 69.3C638.7 71.3 672.3 76.7 705.8 78.8C739.3 81 772.7 80 806.2 82.5C839.7 85 873.3 91 907 93.8C940.7 96.7 974.3 96.3 1008 95.5C1041.7 94.7 1075.3 93.3 1109 89.7C1142.7 86 1176.3 80 1209.8 76.3C1243.3 72.7 1276.7 71.3 1310.2 70C1343.7 68.7 1377.3 67.3 1411 66.8C1444.7 66.3 1478.3 66.7 1495.2 66.8L1512 67L1512 0L1495.2 0C1478.3 0 1444.7 0 1411 0C1377.3 0 1343.7 0 1310.2 0C1276.7 0 1243.3 0 1209.8 0C1176.3 0 1142.7 0 1109 0C1075.3 0 1041.7 0 1008 0C974.3 0 940.7 0 907 0C873.3 0 839.7 0 806.2 0C772.7 0 739.3 0 705.8 0C672.3 0 638.7 0 605 0C571.3 0 537.7 0 504 0C470.3 0 436.7 0 403 0C369.3 0 335.7 0 302.2 0C268.7 0 235.3 0 201.8 0C168.3 0 134.7 0 101 0C67.3 0 33.7 0 16.8 0L0 0Z" fill="#3a2b59"></path><path d="M0 36L16.8 36.3C33.7 36.7 67.3 37.3 101 40C134.7 42.7 168.3 47.3 201.8 47.5C235.3 47.7 268.7 43.3 302.2 40.5C335.7 37.7 369.3 36.3 403 35.8C436.7 35.3 470.3 35.7 504 39.2C537.7 42.7 571.3 49.3 605 50.3C638.7 51.3 672.3 46.7 705.8 45.7C739.3 44.7 772.7 47.3 806.2 47.2C839.7 47 873.3 44 907 42.8C940.7 41.7 974.3 42.3 1008 41.8C1041.7 41.3 1075.3 39.7 1109 39.8C1142.7 40 1176.3 42 1209.8 43.7C1243.3 45.3 1276.7 46.7 1310.2 45.8C1343.7 45 1377.3 42 1411 39C1444.7 36 1478.3 33 1495.2 31.5L1512 30L1512 0L1495.2 0C1478.3 0 1444.7 0 1411 0C1377.3 0 1343.7 0 1310.2 0C1276.7 0 1243.3 0 1209.8 0C1176.3 0 1142.7 0 1109 0C1075.3 0 1041.7 0 1008 0C974.3 0 940.7 0 907 0C873.3 0 839.7 0 806.2 0C772.7 0 739.3 0 705.8 0C672.3 0 638.7 0 605 0C571.3 0 537.7 0 504 0C470.3 0 436.7 0 403 0C369.3 0 335.7 0 302.2 0C268.7 0 235.3 0 201.8 0C168.3 0 134.7 0 101 0C67.3 0 33.7 0 16.8 0L0 0Z" fill="#0a192f"></path></svg>