<svg id="visual" viewBox="0 0 1512 250" width="1512" height="250" xmlns="http://www.w3.org/2000/svg" xmlns:xlink="http://www.w3.org/1999/xlink" version="1.1"><rect x="0" y="0" width="1512" height="250" fill="#140021"></rect><path d="M0 142L216 142L216 139L432 139L432 148L648 148L648 152L864 152L864 152L1080 152L1080 148L1296 148L1296 152L1512 152L1512 152L1512 0L1512 0L1296 0L1296 0L1080 0L1080 0L864 0L864 0L648 0L648 0L432 0L432 0L216 0L216 0L0 0Z" fill="#560090"></path><path d="M0 118L216 118L216 133L432 133L432 133L648 133L648 129L864 129L864 118L1080 118L1080 123L1296 123L1296 125L1512 125L1512 133L1512 0L1512 0L1296 0L1296 0L1080 0L1080 0L864 0L864 0L648 0L648 0L432 0L432 0L216 0L216 0L0 0Z" fill="#9b0082"></path><path d="M0 95L216 95L216 97L432 97L432 110L648 110L648 93L864 93L864 102L1080 102L1080 100L1296 100L1296 92L1512 92L1512 102L1512 0L1512 0L1296 0L1296 0L1080 0L1080 0L864 0L864 0L648 0L648 0L432 0L432 0L216 0L216 0L0 0Z" fill="#c71d73"></path><path d="M0 74L216 74L216 82L432 82L432 67L648 67L648 73L864 73L864 74L1080 74L1080 85L1296 85L1296 85L1512 85L1512 62L1512 0L1512 0L1296 0L1296 0L1080 0L1080 0L864 0L864 0L648 0L648 0L432 0L432 0L216 0L216 0L0 0Z" fill="#e44f68"></path><path d="M0 52L216 52L216 54L432 54L432 45L648 45L648 55L864 55L864 57L1080 57L1080 45L1296 45L1296 53L1512 53L1512 40L1512 0L1512 0L1296 0L1296 0L1080 0L1080 0L864 0L864 0L648 0L648 0L432 0L432 0L216 0L216 0L0 0Z" fill="#f67c65"></path><path d="M0 28L216 28L216 19L432 19L432 12L648 12L648 24L864 24L864 12L1080 12L1080 23L1296 23L1296 32L1512 32L1512 34L1512 0L1512 0L1296 0L1296 0L1080 0L1080 0L864 0L864 0L648 0L648 0L432 0L432 0L216 0L216 0L0 0Z" fill="#ffa86e"></path></svg>