<svg id="visual" viewBox="0 0 1512 350" width="1512" height="350" xmlns="http://www.w3.org/2000/svg" xmlns:xlink="http://www.w3.org/1999/xlink" version="1.1"><rect x="0" y="0" width="1512" height="350" fill="#FFFFE6"></rect><path d="M0 161L36 146.3C72 131.7 144 102.3 216 99C288 95.7 360 118.3 432 123.8C504 129.3 576 117.7 648 120.3C720 123 792 140 864 145C936 150 1008 143 1080 130.8C1152 118.7 1224 101.3 1296 90.2C1368 79 1440 74 1476 71.5L1512 69L1512 351L1476 351C1440 351 1368 351 1296 351C1224 351 1152 351 1080 351C1008 351 936 351 864 351C792 351 720 351 648 351C576 351 504 351 432 351C360 351 288 351 216 351C144 351 72 351 36 351L0 351Z" fill="#fa7268"></path><path d="M0 169L36 163.8C72 158.7 144 148.3 216 152.3C288 156.3 360 174.7 432 183.2C504 191.7 576 190.3 648 192.5C720 194.7 792 200.3 864 189.8C936 179.3 1008 152.7 1080 141.7C1152 130.7 1224 135.3 1296 143C1368 150.7 1440 161.3 1476 166.7L1512 172L1512 351L1476 351C1440 351 1368 351 1296 351C1224 351 1152 351 1080 351C1008 351 936 351 864 351C792 351 720 351 648 351C576 351 504 351 432 351C360 351 288 351 216 351C144 351 72 351 36 351L0 351Z" fill="#fa9d71"></path><path d="M0 176L36 181.5C72 187 144 198 216 205.3C288 212.7 360 216.3 432 217.3C504 218.3 576 216.7 648 218C720 219.3 792 223.7 864 226.2C936 228.7 1008 229.3 1080 220.7C1152 212 1224 194 1296 188.5C1368 183 1440 190 1476 193.5L1512 197L1512 351L1476 351C1440 351 1368 351 1296 351C1224 351 1152 351 1080 351C1008 351 936 351 864 351C792 351 720 351 648 351C576 351 504 351 432 351C360 351 288 351 216 351C144 351 72 351 36 351L0 351Z" fill="#f7c28c"></path><path d="M0 213L36 223.5C72 234 144 255 216 255.3C288 255.7 360 235.3 432 225.3C504 215.3 576 215.7 648 217.3C720 219 792 222 864 224.5C936 227 1008 229 1080 228.2C1152 227.3 1224 223.7 1296 223.5C1368 223.3 1440 226.7 1476 228.3L1512 230L1512 351L1476 351C1440 351 1368 351 1296 351C1224 351 1152 351 1080 351C1008 351 936 351 864 351C792 351 720 351 648 351C576 351 504 351 432 351C360 351 288 351 216 351C144 351 72 351 36 351L0 351Z" fill="#f7e3b6"></path><path d="M0 307L36 307.5C72 308 144 309 216 307.5C288 306 360 302 432 303.2C504 304.3 576 310.7 648 312C720 313.3 792 309.7 864 305.8C936 302 1008 298 1080 298.5C1152 299 1224 304 1296 306.5C1368 309 1440 309 1476 309L1512 309L1512 351L1476 351C1440 351 1368 351 1296 351C1224 351 1152 351 1080 351C1008 351 936 351 864 351C792 351 720 351 648 351C576 351 504 351 432 351C360 351 288 351 216 351C144 351 72 351 36 351L0 351Z" fill="#ffffe6"></path></svg>